<svg width="1440" height="720" viewBox="0 0 1440 720" xmlns="http://www.w3.org/2000/svg">
<defs>
<linearGradient id="bg" x1="0%" y1="0%" x2="100%" y2="100%">
<stop offset="0%" stop-color="#170a30"/><stop offset="50%" stop-color="#1c0f3a"/>
<stop offset="100%" stop-color="#0e0720"/>
</linearGradient>
<radialGradient id="cg" cx="50%" cy="42%" r="35%">
<stop offset="0%" stop-color="#7C3AED" stop-opacity="0.28"/>
<stop offset="100%" stop-color="#7C3AED" stop-opacity="0"/>
</radialGradient>
<radialGradient id="g1" cx="50%" cy="50%" r="50%">
<stop offset="0%" stop-color="#8B5CF6" stop-opacity="0.35"/>
<stop offset="100%" stop-color="#8B5CF6" stop-opacity="0"/>
</radialGradient>
<radialGradient id="g2" cx="50%" cy="50%" r="50%">
<stop offset="0%" stop-color="#A78BFA" stop-opacity="0.30"/>
<stop offset="100%" stop-color="#A78BFA" stop-opacity="0"/>
</radialGradient>
</defs>
<rect width="1440" height="720" fill="url(#bg)"/>
<ellipse cx="720" cy="310" rx="480" ry="350" fill="url(#cg)"/>
<circle cx="130" cy="120" r="250" fill="url(#g1)" opacity="0.5"/>
<circle cx="1330" cy="100" r="220" fill="url(#g2)" opacity="0.45"/>
<circle cx="70" cy="560" r="260" fill="url(#g2)" opacity="0.45"/>
<circle cx="1390" cy="580" r="240" fill="url(#g1)" opacity="0.4"/>
<g stroke="#6D28D9" stroke-width="0.5" fill="none" opacity="0.12">
<line x1="0" y1="90" x2="1440" y2="90"/><line x1="0" y1="180" x2="1440" y2="180"/>
<line x1="0" y1="270" x2="1440" y2="270"/><line x1="0" y1="360" x2="1440" y2="360"/>
<line x1="0" y1="450" x2="1440" y2="450"/><line x1="0" y1="540" x2="1440" y2="540"/>
<line x1="0" y1="630" x2="1440" y2="630"/>
<line x1="90" y1="0" x2="90" y2="720"/><line x1="180" y1="0" x2="180" y2="720"/>
<line x1="360" y1="0" x2="360" y2="720"/><line x1="540" y1="0" x2="540" y2="720"/>
<line x1="720" y1="0" x2="720" y2="720"/><line x1="900" y1="0" x2="900" y2="720"/>
<line x1="1080" y1="0" x2="1080" y2="720"/><line x1="1260" y1="0" x2="1260" y2="720"/>
</g>
<g stroke="#8B5CF6" stroke-width="1.8" fill="none" opacity="0.25">
<path d="M60 330 Q300 210 540 290 Q720 350 940 260 Q1140 180 1400 310"/>
<path d="M0 480 Q220 380 460 445 Q700 510 940 405 Q1160 310 1440 430"/>
<path d="M1440 190 Q1180 300 940 250 Q700 210 460 300 Q220 400 0 290"/>
</g>
<g stroke="#7C3AED" stroke-width="0.8" fill="none" opacity="0.30">
<path d="M580 180 Q630 155 680 200 Q720 245 700 300 Q680 345 720 370"/>
<path d="M770 175 Q730 200 750 255 Q770 310 740 350 Q710 370 730 410"/>
<path d="M650 145 Q690 185 730 175 Q770 165 800 200"/>
<path d="M620 385 Q665 360 710 395 Q755 428 800 405"/>
<path d="M550 280 Q600 255 650 290 Q700 325 740 300"/>
<path d="M770 280 Q815 255 860 290"/>
<path d="M670 138 Q720 115 770 148"/>
<path d="M650 425 Q700 448 750 425 Q795 405 830 435"/>
</g>
<g stroke="#7C3AED" stroke-width="1" fill="none" opacity="0.22">
<line x1="180" y1="210" x2="300" y2="148"/><line x1="300" y1="148" x2="460" y2="210"/>
<line x1="360" y1="290" x2="510" y2="355"/><line x1="460" y1="210" x2="590" y2="190"/>
<line x1="590" y1="190" x2="670" y2="285"/><line x1="670" y1="285" x2="730" y2="190"/>
<line x1="730" y1="190" x2="790" y2="310"/><line x1="790" y1="310" x2="870" y2="210"/>
<line x1="870" y1="210" x2="950" y2="325"/><line x1="950" y1="325" x2="1040" y2="230"/>
<line x1="1040" y1="230" x2="1120" y2="345"/><line x1="1120" y1="345" x2="1200" y2="210"/>
<line x1="1200" y1="210" x2="1290" y2="285"/>
<line x1="180" y1="210" x2="360" y2="290"/><line x1="510" y1="355" x2="670" y2="285"/>
<line x1="790" y1="310" x2="950" y2="325"/><line x1="1040" y1="230" x2="1290" y2="285"/>
<line x1="210" y1="460" x2="360" y2="290"/><line x1="490" y1="490" x2="510" y2="355"/>
<line x1="760" y1="470" x2="790" y2="310"/><line x1="1010" y1="480" x2="1040" y2="230"/>
<line x1="210" y1="460" x2="330" y2="530"/><line x1="490" y1="490" x2="610" y2="545"/>
<line x1="760" y1="470" x2="890" y2="530"/><line x1="1010" y1="480" x2="1160" y2="540"/>
<line x1="1160" y1="540" x2="1310" y2="480"/>
</g>
<g>
<circle cx="180" cy="210" r="8" fill="#8B5CF6" opacity="0.55"/>
<circle cx="300" cy="148" r="7" fill="#9F7AEA" opacity="0.50"/>
<circle cx="360" cy="290" r="9" fill="#A78BFA" opacity="0.55"/>
<circle cx="460" cy="210" r="7" fill="#8B5CF6" opacity="0.48"/>
<circle cx="510" cy="355" r="8" fill="#C4B5FD" opacity="0.50"/>
<circle cx="590" cy="190" r="9" fill="#9F7AEA" opacity="0.55"/>
<circle cx="670" cy="285" r="12" fill="#A78BFA" opacity="0.60"/>
<circle cx="730" cy="190" r="8" fill="#C4B5FD" opacity="0.50"/>
<circle cx="790" cy="310" r="11" fill="#B4A0FA" opacity="0.55"/>
<circle cx="870" cy="210" r="8" fill="#9F7AEA" opacity="0.50"/>
<circle cx="950" cy="325" r="7" fill="#8B5CF6" opacity="0.48"/>
<circle cx="1040" cy="230" r="9" fill="#A78BFA" opacity="0.55"/>
<circle cx="1120" cy="345" r="8" fill="#9F7AEA" opacity="0.50"/>
<circle cx="1200" cy="210" r="7" fill="#C4B5FD" opacity="0.48"/>
<circle cx="1290" cy="285" r="9" fill="#8B5CF6" opacity="0.55"/>
<circle cx="210" cy="460" r="7" fill="#9F7AEA" opacity="0.40"/>
<circle cx="330" cy="530" r="8" fill="#A78BFA" opacity="0.42"/>
<circle cx="490" cy="490" r="7" fill="#8B5CF6" opacity="0.40"/>
<circle cx="610" cy="545" r="9" fill="#C4B5FD" opacity="0.42"/>
<circle cx="760" cy="470" r="8" fill="#9F7AEA" opacity="0.40"/>
<circle cx="890" cy="530" r="7" fill="#A78BFA" opacity="0.38"/>
<circle cx="1010" cy="480" r="9" fill="#8B5CF6" opacity="0.42"/>
<circle cx="1160" cy="540" r="7" fill="#C4B5FD" opacity="0.38"/>
<circle cx="1310" cy="480" r="8" fill="#9F7AEA" opacity="0.40"/>
</g>
<g fill="none" stroke-width="0.8">
<circle cx="670" cy="285" r="26" stroke="#A78BFA" opacity="0.30"/>
<circle cx="670" cy="285" r="42" stroke="#8B5CF6" opacity="0.15" stroke-dasharray="4 6"/>
<circle cx="790" cy="310" r="24" stroke="#C4B5FD" opacity="0.28"/>
<circle cx="790" cy="310" r="38" stroke="#A78BFA" opacity="0.14" stroke-dasharray="4 6"/>
<circle cx="510" cy="355" r="22" stroke="#9F7AEA" opacity="0.25"/>
<circle cx="510" cy="355" r="36" stroke="#8B5CF6" opacity="0.12" stroke-dasharray="4 6"/>
<circle cx="950" cy="325" r="22" stroke="#C4B5FD" opacity="0.25"/>
<circle cx="950" cy="325" r="34" stroke="#A78BFA" opacity="0.12" stroke-dasharray="4 6"/>
<circle cx="360" cy="290" r="20" stroke="#8B5CF6" opacity="0.22"/>
<circle cx="1040" cy="230" r="20" stroke="#A78BFA" opacity="0.22"/>
</g>
<g fill="none" stroke="#C4B5FD" stroke-width="1.2" opacity="0.35">
<g transform="translate(88,55)"><rect x="0" y="0" width="42" height="54" rx="4"/><line x1="8" y1="12" x2="34" y2="12"/><line x1="8" y1="22" x2="34" y2="22"/><line x1="8" y1="32" x2="26" y2="32"/><line x1="8" y1="42" x2="30" y2="42"/><path d="M0 54 L0 58 Q21 67 42 58 L42 54"/></g>
<g transform="translate(1305,60)"><rect x="0" y="0" width="42" height="54" rx="4"/><line x1="8" y1="12" x2="34" y2="12"/><line x1="8" y1="22" x2="34" y2="22"/><line x1="8" y1="32" x2="26" y2="32"/><path d="M0 54 L0 58 Q21 67 42 58 L42 54"/></g>
</g>
<g fill="none" stroke="#B4A0FA" stroke-width="1.2" opacity="0.30">
<g transform="translate(50,450)"><path d="M22 0 L44 16 L44 44 L0 44 L0 16 Z"/><rect x="14" y="24" width="16" height="20"/></g>
<g transform="translate(1360,440)"><path d="M22 0 L44 16 L44 44 L0 44 L0 16 Z"/><rect x="14" y="24" width="16" height="20"/></g>
</g>
<g fill="none" opacity="0.38">
<g transform="translate(195,545)" stroke="#C4B5FD" stroke-width="1.2">
<circle cx="22" cy="22" r="20"/><circle cx="22" cy="22" r="8"/>
<line x1="22" y1="2" x2="22" y2="9"/><line x1="22" y1="35" x2="22" y2="42"/>
<line x1="2" y1="22" x2="9" y2="22"/><line x1="35" y1="22" x2="42" y2="22"/>
<line x1="8" y1="8" x2="13" y2="13"/><line x1="31" y1="31" x2="36" y2="36"/>
<line x1="36" y1="8" x2="31" y2="13"/><line x1="8" y1="36" x2="13" y2="31"/>
</g>
<g transform="translate(1180,545)" stroke="#B4A0FA" stroke-width="1.2">
<circle cx="22" cy="22" r="20"/><circle cx="22" cy="22" r="8"/>
<line x1="22" y1="2" x2="22" y2="9"/><line x1="22" y1="35" x2="22" y2="42"/>
<line x1="2" y1="22" x2="9" y2="22"/><line x1="35" y1="22" x2="42" y2="22"/>
<line x1="8" y1="8" x2="13" y2="13"/><line x1="31" y1="31" x2="36" y2="36"/>
</g>
</g>
<g fill="none" opacity="0.35">
<g transform="translate(70,278)" stroke="#A78BFA" stroke-width="1">
<ellipse cx="24" cy="24" rx="24" ry="8"/><ellipse cx="24" cy="24" rx="24" ry="8" transform="rotate(60,24,24)"/><ellipse cx="24" cy="24" rx="24" ry="8" transform="rotate(120,24,24)"/><circle cx="24" cy="24" r="5" fill="#A78BFA" opacity="0.5"/></g>
<g transform="translate(1310,285)" stroke="#C4B5FD" stroke-width="1">
<ellipse cx="24" cy="24" rx="24" ry="8"/><ellipse cx="24" cy="24" rx="24" ry="8" transform="rotate(60,24,24)"/><ellipse cx="24" cy="24" rx="24" ry="8" transform="rotate(120,24,24)"/><circle cx="24" cy="24" r="5" fill="#C4B5FD" opacity="0.5"/></g>
</g>
<g fill="none" opacity="0.38">
<g transform="translate(555,50)" stroke="#B4A0FA" stroke-width="1.2">
<rect x="0" y="14" width="34" height="22" rx="5"/><rect x="9" y="0" width="16" height="14" rx="3"/><circle cx="17" cy="25" r="5"/><line x1="17" y1="30" x2="17" y2="36"/></g>
<g transform="translate(820,605)" stroke="#C4B5FD" stroke-width="1.2">
<rect x="0" y="14" width="34" height="22" rx="5"/><rect x="9" y="0" width="16" height="14" rx="3"/><circle cx="17" cy="25" r="5"/><line x1="17" y1="30" x2="17" y2="36"/></g>
</g>
<g fill="none" opacity="0.32">
<g transform="translate(310,600)" stroke="#B4A0FA" stroke-width="1"><path d="M0 28 L16 0 L32 28 Z"/><line x1="16" y1="28" x2="16" y2="40"/><line x1="8" y1="40" x2="24" y2="40"/></g>
<g transform="translate(1090,50)" stroke="#A78BFA" stroke-width="1"><path d="M0 28 L16 0 L32 28 Z"/><line x1="16" y1="28" x2="16" y2="40"/><line x1="8" y1="40" x2="24" y2="40"/></g>
</g>
<g fill="none" opacity="0.30">
<g transform="translate(690,48)" stroke="#A78BFA" stroke-width="1"><path d="M0 26 C0 12 12 0 26 0 C40 0 52 12 52 26"/><line x1="8" y1="26" x2="44" y2="26"/><rect x="14" y="28" width="24" height="5" rx="2"/></g>
<g transform="translate(670,625)" stroke="#C4B5FD" stroke-width="1"><path d="M0 26 C0 12 12 0 26 0 C40 0 52 12 52 26"/><line x1="8" y1="26" x2="44" y2="26"/><rect x="14" y="28" width="24" height="5" rx="2"/></g>
</g>
<g fill="none" opacity="0.28">
<g transform="translate(415,55)" stroke="#9F7AEA" stroke-width="1"><rect x="0" y="8" width="36" height="26" rx="3"/><path d="M0 15 L18 27 L36 15"/></g>
<g transform="translate(980,610)" stroke="#B4A0FA" stroke-width="1"><circle cx="18" cy="18" r="16"/><path d="M10 18 L16 24 L27 12" stroke-width="2.5"/></g>
</g>
<g>
<circle cx="550" cy="120" r="2" fill="#C4B5FD" opacity="0.45"/>
<circle cx="890" cy="95" r="2.5" fill="#B4A0FA" opacity="0.40"/>
<circle cx="400" cy="400" r="2" fill="#9F7AEA" opacity="0.35"/>
<circle cx="1060" cy="400" r="2.5" fill="#A78BFA" opacity="0.40"/>
<circle cx="280" cy="340" r="1.5" fill="#C4B5FD" opacity="0.30"/>
<circle cx="1160" cy="300" r="2" fill="#B4A0FA" opacity="0.35"/>
<circle cx="170" cy="390" r="1.5" fill="#9F7AEA" opacity="0.30"/>
<circle cx="1260" cy="430" r="2" fill="#A78BFA" opacity="0.30"/>
</g>
<rect x="0" y="0" width="1440" height="90" fill="url(#bg)" opacity="0.6"/>
<rect x="0" y="640" width="1440" height="80" fill="url(#bg)" opacity="0.6"/>
</svg>
